<svg width="283" height="42" viewBox="0 0 283 42" fill="none" xmlns="http://www.w3.org/2000/svg">
<path d="M-5.87106e-06 27.3C-5.87106e-06 24.9667 0.266661 22.6833 0.799994 20.45C1.36666 18.1833 2.14999 16.05 3.14999 14.05C4.14999 12.0167 5.33333 10.1667 6.7 8.5C8.09999 6.8 9.61666 5.33334 11.25 4.1C12.9167 2.86667 14.6833 1.91667 16.55 1.25001C18.4167 0.550005 20.3333 0.200004 22.3 0.200004C24.6 0.200004 26.3833 0.683337 27.65 1.65C28.95 2.61667 29.6 3.96667 29.6 5.70001C29.6 6.36667 29.5 7.05 29.3 7.75001C29.1333 8.45 28.8667 9.15 28.5 9.85001C28.1667 10.5167 27.7667 11.1667 27.3 11.8C26.8333 12.4333 26.3167 12.9833 25.75 13.45C24.8833 13.3167 24.1333 12.9333 23.5 12.3C22.8667 11.6333 22.4667 10.8667 22.3 10C23.4667 9.03334 24.3833 8.03334 25.05 7C25.75 5.93334 26.1 4.96667 26.1 4.1C26.1 2.63334 25.1833 1.9 23.35 1.9C22.5833 1.9 21.7833 2.06667 20.95 2.40001C20.15 2.7 19.3333 3.13334 18.5 3.7C17.6667 4.26667 16.85 4.95 16.05 5.75C15.2833 6.55 14.5667 7.43334 13.9 8.40001C9.26666 15.0667 6.94999 21.8833 6.94999 28.85C6.94999 31.3167 7.33333 33.3 8.09999 34.8C8.86666 36.3 9.88333 37.1833 11.15 37.45C12.5833 37.1167 14.4 36.2 16.6 34.7C18.8 33.2 21.2 31.25 23.8 28.85C24.1333 29.1833 24.3333 29.5333 24.4 29.9C23.4333 31.1667 22.4333 32.3833 21.4 33.55C20.3667 34.7167 19.3333 35.7833 18.3 36.75C17.3 37.7167 16.3 38.5667 15.3 39.3C14.3333 40.0333 13.4333 40.6 12.6 41C8.46666 40.9333 5.33333 39.75 3.19999 37.45C1.06666 35.15 -5.87106e-06 31.7667 -5.87106e-06 27.3ZM62.1258 9.55001C62.1258 11.15 61.7591 12.6667 61.0258 14.1C60.3258 15.5 59.3424 16.7667 58.0758 17.9C56.8091 19 55.3258 19.9333 53.6258 20.7C51.9258 21.4667 50.0758 21.9833 48.0758 22.25C48.5758 23.75 49.1758 25.3 49.8758 26.9C50.6091 28.4667 51.3924 29.9833 52.2258 31.45C53.0591 32.9167 53.9258 34.2667 54.8258 35.5C55.7258 36.7333 56.6091 37.75 57.4758 38.55C57.3091 38.8833 57.0591 39.2167 56.7258 39.55C56.4258 39.8833 56.0591 40.1833 55.6258 40.45C55.2258 40.75 54.7924 40.9833 54.3258 41.15C53.8924 41.35 53.4758 41.45 53.0758 41.45C52.3424 41.45 51.6424 41.1 50.9758 40.4C50.3091 39.7 49.6258 38.6 48.9258 37.1C48.2591 35.5667 47.5424 33.6 46.7758 31.2C46.0424 28.7667 45.2258 25.85 44.3258 22.45C43.9591 22.45 43.5924 22.45 43.2258 22.45C42.8591 22.45 42.5758 22.4167 42.3758 22.35C42.1424 22.2167 41.8924 21.9833 41.6258 21.65C40.7258 23.5833 39.9258 25.4 39.2258 27.1C38.5258 28.8 37.8924 30.45 37.3258 32.05C36.7924 33.6167 36.3091 35.15 35.8758 36.65C35.4758 38.1167 35.1258 39.6167 34.8258 41.15C33.6924 40.8833 32.7091 40.4 31.8758 39.7C31.0424 39 30.2591 38.0167 29.5258 36.75C29.6591 36.45 29.7924 36.1667 29.9258 35.9C30.0924 35.6 30.2924 35.2 30.5258 34.7C30.7591 34.1667 31.0424 33.5 31.3758 32.7C31.7424 31.9 32.2091 30.8333 32.7758 29.5C33.3758 28.1667 34.0758 26.5333 34.8758 24.6C35.7091 22.6667 36.7091 20.3167 37.8758 17.55C38.4091 16.3167 38.8591 15.2333 39.2258 14.3C39.6258 13.3667 39.9758 12.4833 40.2758 11.65C40.5758 10.7833 40.8424 9.93334 41.0758 9.10001C41.3424 8.23334 41.6091 7.25 41.8758 6.15001C40.3424 6.68334 38.9091 7.28334 37.5758 7.95001C36.2758 8.58334 35.1924 9.26667 34.3258 10C34.0258 9.8 33.7091 9.5 33.3758 9.10001C33.0758 8.70001 32.7924 8.26667 32.5258 7.8C32.2591 7.30001 32.0258 6.8 31.8258 6.3C31.6258 5.8 31.5091 5.35 31.4758 4.95001C32.4758 4.28334 33.6924 3.66667 35.1258 3.10001C36.5924 2.53334 38.1424 2.05 39.7758 1.65C41.4091 1.21667 43.0758 0.883337 44.7758 0.650005C46.4758 0.41667 48.0591 0.300003 49.5258 0.300003C53.5258 0.300003 56.6258 1.13334 58.8258 2.8C61.0258 4.43334 62.1258 6.68334 62.1258 9.55001ZM49.9258 5.35C49.6924 5.65 49.3258 6.25 48.8258 7.15C48.3258 8.05 47.7424 9.13334 47.0758 10.4C46.4424 11.6333 45.7591 12.9833 45.0258 14.45C44.3258 15.9167 43.6424 17.3667 42.9758 18.8C45.4758 18.8 47.7758 18.5667 49.8758 18.1C51.9758 17.6333 53.7924 16.9833 55.3258 16.15C56.8591 15.2833 58.0424 14.2833 58.8758 13.15C59.7424 11.9833 60.1758 10.7 60.1758 9.3C60.1758 7.63334 59.5758 6.36667 58.3758 5.5C57.1758 4.6 55.3258 4.15 52.8258 4.15C52.2591 4.15 51.6924 4.18334 51.1258 4.25001C50.5591 4.28334 49.9591 4.33334 49.3258 4.4L49.9258 5.35ZM78.5094 19.85C81.0094 17.1167 83.2427 14.2167 85.2094 11.15C87.2094 8.08334 89.0594 4.63334 90.7594 0.800006C91.626 0.900004 92.4594 1.13334 93.2594 1.50001C94.0594 1.86667 94.6927 2.28334 95.1594 2.75C93.326 4.95 91.6594 6.95 90.1594 8.75C88.6927 10.55 87.3427 12.25 86.1094 13.85C84.876 15.4167 83.726 16.9333 82.6594 18.4C81.626 19.8333 80.6094 21.2833 79.6094 22.75C79.1094 24.45 78.6427 26.1667 78.2094 27.9C77.776 29.6333 77.3927 31.3 77.0594 32.9C76.726 34.4667 76.4594 35.9167 76.2594 37.25C76.0927 38.6167 76.0094 39.7833 76.0094 40.75C75.6427 40.75 75.0594 40.6667 74.2594 40.5C73.4594 40.3667 72.6427 40.2 71.8094 40C70.976 39.8 70.2094 39.6 69.5094 39.4C68.8427 39.2 68.4427 39.0333 68.3094 38.9C68.8427 38 69.3594 36.9 69.8594 35.6C70.3927 34.2667 70.9094 32.8833 71.4094 31.45C71.9094 29.9833 72.3927 28.5167 72.8594 27.05C73.326 25.55 73.7594 24.1667 74.1594 22.9C73.326 20.3 72.5094 17.8667 71.7094 15.6C70.9427 13.3 70.1927 11.2333 69.4594 9.40001C68.726 7.53334 68.026 5.93334 67.3594 4.6C66.6927 3.26667 66.0594 2.25 65.4594 1.55C65.7927 1.41667 66.2927 1.28334 66.9594 1.15C67.6594 1.01667 68.4094 0.883337 69.2094 0.750003C70.0427 0.616672 70.876 0.516672 71.7094 0.450004C72.576 0.350003 73.3427 0.283337 74.0094 0.250004C74.0094 1.08334 74.076 2.1 74.2094 3.3C74.376 4.5 74.576 5.78334 74.8094 7.15C75.076 8.51667 75.376 9.9 75.7094 11.3C76.0427 12.7 76.376 13.9833 76.7094 15.15C77.0427 16.3167 77.3594 17.3333 77.6594 18.2C77.9927 19.0333 78.276 19.5833 78.5094 19.85ZM109.037 38.65C108.871 37.2833 108.737 35.8 108.637 34.2C108.571 32.5667 108.537 31.05 108.537 29.65C108.537 27.4167 108.604 25.2833 108.737 23.25C108.904 21.1833 109.087 19.0333 109.287 16.8C109.521 14.5333 109.771 12.0833 110.037 9.45C110.304 6.78334 110.537 3.71667 110.737 0.250004C111.171 0.250004 111.787 0.383337 112.587 0.650005C113.421 0.883337 114.254 1.16667 115.087 1.50001C115.921 1.83334 116.654 2.18334 117.287 2.55C117.921 2.88334 118.287 3.16667 118.387 3.4C117.821 4.7 117.304 6.41667 116.837 8.55C116.404 10.65 116.037 12.95 115.737 15.45C115.437 17.95 115.204 20.5167 115.037 23.15C114.871 25.7833 114.787 28.25 114.787 30.55C114.787 31.6167 114.804 32.6667 114.837 33.7C114.871 34.7333 114.921 35.6833 114.987 36.55C115.687 35.5167 116.487 34.05 117.387 32.15C118.321 30.2167 119.271 28.0667 120.237 25.7C121.237 23.3333 122.221 20.8667 123.187 18.3C124.187 15.7 125.104 13.2333 125.937 10.9C126.771 8.53334 127.471 6.41667 128.037 4.55C128.637 2.65001 129.054 1.21667 129.287 0.250004C129.721 0.250004 130.354 0.383337 131.187 0.650005C132.054 0.883337 132.887 1.16667 133.687 1.50001C134.521 1.83334 135.254 2.18334 135.887 2.55C136.521 2.88334 136.871 3.16667 136.937 3.4C136.371 4.7 135.854 6.41667 135.387 8.55C134.954 10.65 134.587 12.95 134.287 15.45C133.987 17.95 133.754 20.5167 133.587 23.15C133.421 25.7833 133.337 28.25 133.337 30.55C133.337 31.5167 133.337 32.4833 133.337 33.45C133.371 34.3833 133.421 35.2333 133.487 36C134.554 33.2333 135.654 30.5 136.787 27.8C137.954 25.0667 139.104 22.4667 140.237 20C141.371 17.5 142.471 15.1833 143.537 13.05C144.604 10.8833 145.587 8.96667 146.487 7.30001C147.387 5.60001 148.171 4.20001 148.837 3.10001C149.504 2 150.021 1.26667 150.387 0.900004C151.154 1 151.937 1.28334 152.737 1.75001C153.571 2.18334 154.304 2.75001 154.937 3.45C153.971 4.21667 152.871 5.48334 151.637 7.25001C150.404 8.98334 149.137 11 147.837 13.3C146.537 15.6 145.221 18.05 143.887 20.65C142.587 23.25 141.371 25.7833 140.237 28.25C139.104 30.7167 138.087 33.0167 137.187 35.15C136.321 37.2833 135.654 39 135.187 40.3C134.321 40.7 133.471 40.9 132.637 40.9C131.571 40.7667 130.554 40.5 129.587 40.1C128.654 39.7 127.987 39.2167 127.587 38.65C127.487 38.1167 127.404 37.5 127.337 36.8C127.271 36.0667 127.221 35.35 127.187 34.65C127.154 33.95 127.121 33.2833 127.087 32.65C127.087 31.9833 127.087 31.4167 127.087 30.95C127.087 27.9833 127.204 24.9667 127.437 21.9C127.671 18.8 127.954 15.4833 128.287 11.95C127.521 14.2167 126.671 16.65 125.737 19.25C124.804 21.85 123.821 24.4333 122.787 27C121.787 29.5333 120.754 31.9667 119.687 34.3C118.654 36.6 117.637 38.6 116.637 40.3C115.771 40.7 114.921 40.9 114.087 40.9C113.021 40.7667 112.004 40.5 111.037 40.1C110.104 39.7 109.437 39.2167 109.037 38.65ZM151.794 34.25C151.794 33.05 151.977 31.5 152.344 29.6C152.744 27.6667 153.244 25.6 153.844 23.4C154.477 21.1667 155.194 18.9 155.994 16.6C156.794 14.2667 157.61 12.0833 158.444 10.05C159.277 8.01667 160.094 6.23334 160.894 4.70001C161.694 3.16667 162.41 2.06667 163.044 1.4C163.377 1.43334 163.81 1.56667 164.344 1.8C164.91 2 165.477 2.25 166.044 2.55C166.61 2.85 167.127 3.18334 167.594 3.55001C168.06 3.88334 168.36 4.20001 168.494 4.50001C167.527 5.36667 166.56 6.68334 165.594 8.45001C164.66 10.1833 163.744 12.1667 162.844 14.4C161.977 16.6333 161.16 19 160.394 21.5C159.627 23.9667 158.96 26.3667 158.394 28.7C157.827 31.0333 157.377 33.2 157.044 35.2C156.744 37.2 156.594 38.8167 156.594 40.05C156.594 40.6167 156.644 40.9667 156.744 41.1C156.01 41.0667 155.477 40.9333 155.144 40.7C154.81 40.5 154.544 40.2667 154.344 40C154.177 39.7667 154.01 39.5167 153.844 39.25C153.71 39.0167 153.494 38.8333 153.194 38.7C152.96 38.6 152.76 38.3667 152.594 38C152.427 37.6333 152.277 37.2333 152.144 36.8C152.044 36.3333 151.96 35.8667 151.894 35.4C151.827 34.9333 151.794 34.55 151.794 34.25ZM175.965 6.80001C174.632 6.80001 173.599 6.43334 172.865 5.70001C172.165 4.93334 171.815 4.01667 171.815 2.95C171.815 2.68334 171.849 2.36667 171.915 2.00001C172.015 1.63334 172.132 1.31667 172.265 1.05001C172.699 1.25 173.332 1.4 174.165 1.50001C175.032 1.56667 176.032 1.6 177.165 1.6C178.865 1.6 180.782 1.53334 182.915 1.4C185.082 1.23334 187.149 1.06667 189.115 0.900004C191.082 0.733338 192.815 0.583338 194.315 0.450004C195.815 0.283338 196.782 0.200004 197.215 0.200004C198.449 0.200004 199.332 0.666671 199.865 1.6C200.432 2.5 200.849 3.71667 201.115 5.25C200.249 5.18334 199.382 5.13334 198.515 5.1C197.682 5.03334 196.965 5.00001 196.365 5.00001C195.299 5.00001 194.215 5.03334 193.115 5.1C192.049 5.16667 190.965 5.26667 189.865 5.40001C189.399 6.36667 188.882 7.51667 188.315 8.85001C187.749 10.15 187.182 11.5167 186.615 12.95C186.082 14.3833 185.565 15.8167 185.065 17.25C184.565 18.65 184.132 19.9167 183.765 21.05C183.032 23.25 182.382 25.2833 181.815 27.15C181.282 29.0167 180.799 30.7667 180.365 32.4C179.965 34 179.615 35.5333 179.315 37C179.015 38.4667 178.749 39.9 178.515 41.3C176.282 40.9667 174.415 39.5667 172.915 37.1C173.182 36.0667 173.499 34.95 173.865 33.75C174.265 32.5167 174.715 31.1333 175.215 29.6C175.749 28.0333 176.365 26.2667 177.065 24.3C177.765 22.3333 178.565 20.1 179.465 17.6C179.799 16.6667 180.149 15.7 180.515 14.7C180.882 13.6667 181.232 12.65 181.565 11.65C181.932 10.65 182.249 9.68334 182.515 8.75C182.815 7.81667 183.065 6.96667 183.265 6.2C181.865 6.36667 180.532 6.51667 179.265 6.65C178.032 6.75001 176.932 6.80001 175.965 6.80001ZM214.96 34.2C214.96 32.8 215.193 31 215.66 28.8C216.126 26.6 216.743 24.25 217.51 21.75C215.31 21.9167 213.093 22.1333 210.86 22.4C208.66 22.6667 206.743 22.8167 205.11 22.85C203.61 26.35 202.41 29.5833 201.51 32.55C200.643 35.4833 199.96 38.35 199.46 41.15C198.193 40.85 197.143 40.3167 196.31 39.55C195.476 38.8167 194.71 37.8833 194.01 36.75C194.276 36.2167 194.576 35.5333 194.91 34.7C195.276 33.8667 195.693 32.8667 196.16 31.7C196.66 30.5 197.21 29.1167 197.81 27.55C198.443 25.95 199.16 24.1 199.96 22C198.86 21.5333 198.126 20.8833 197.76 20.05C197.926 19.9167 198.293 19.7833 198.86 19.65C199.46 19.4833 200.193 19.3167 201.06 19.15L201.71 17.55C202.41 15.75 202.976 14.2333 203.41 13C203.876 11.7667 204.26 10.5667 204.56 9.40001C204.893 8.2 205.193 6.88334 205.46 5.45001C205.76 4.01667 206.11 2.2 206.51 3.93391e-06C207.91 0.266671 209.176 0.883338 210.31 1.85C211.476 2.81667 212.476 3.98334 213.31 5.35C213.01 5.75 212.643 6.35 212.21 7.15C211.776 7.95 211.293 8.91667 210.76 10.05C210.26 11.15 209.71 12.4 209.11 13.8C208.51 15.1667 207.86 16.6167 207.16 18.15C209.226 17.8833 211.31 17.6333 213.41 17.4C215.543 17.1667 217.426 17 219.06 16.9C219.66 15.1667 220.276 13.4833 220.91 11.85C221.576 10.1833 222.226 8.66667 222.86 7.30001C223.493 5.93334 224.093 4.73334 224.66 3.7C225.26 2.66667 225.793 1.9 226.26 1.4C226.593 1.43334 227.026 1.56667 227.56 1.8C228.126 2 228.693 2.25 229.26 2.55C229.826 2.85 230.343 3.18334 230.81 3.55001C231.276 3.88334 231.593 4.20001 231.76 4.50001C231.16 5.06667 230.56 5.8 229.96 6.7C229.36 7.6 228.76 8.63334 228.16 9.80001C227.593 10.9667 227.026 12.2333 226.46 13.6C225.893 14.9667 225.36 16.3833 224.86 17.85C225.526 18.45 225.86 19.2 225.86 20.1C225.86 20.7333 225.726 21.3167 225.46 21.85C225.16 21.7833 224.86 21.75 224.56 21.75C224.26 21.7167 223.943 21.6833 223.61 21.65C223.043 23.45 222.526 25.2333 222.06 27C221.593 28.7667 221.193 30.45 220.86 32.05C220.56 33.65 220.31 35.1167 220.11 36.45C219.943 37.7833 219.86 38.9 219.86 39.8C219.86 40.1333 219.86 40.4 219.86 40.6C219.893 40.8 219.926 40.9667 219.96 41.1C219.226 41.0667 218.693 40.9333 218.36 40.7C218.026 40.5 217.776 40.2667 217.61 40C217.443 39.7667 217.293 39.5167 217.16 39.25C217.026 39.0167 216.81 38.8333 216.51 38.7C216.276 38.6 216.06 38.3667 215.86 38C215.66 37.6333 215.493 37.2167 215.36 36.75C215.226 36.2833 215.126 35.8167 215.06 35.35C214.993 34.8833 214.96 34.5 214.96 34.2ZM230.7 34.25C230.7 33.05 230.883 31.5 231.25 29.6C231.65 27.6667 232.15 25.6 232.75 23.4C233.383 21.1667 234.1 18.9 234.9 16.6C235.7 14.2667 236.517 12.0833 237.35 10.05C238.183 8.01667 239 6.23334 239.8 4.70001C240.6 3.16667 241.317 2.06667 241.95 1.4C242.283 1.43334 242.717 1.56667 243.25 1.8C243.817 2 244.383 2.25 244.95 2.55C245.517 2.85 246.033 3.18334 246.5 3.55001C246.967 3.88334 247.267 4.20001 247.4 4.50001C246.433 5.36667 245.467 6.68334 244.5 8.45001C243.567 10.1833 242.65 12.1667 241.75 14.4C240.883 16.6333 240.067 19 239.3 21.5C238.533 23.9667 237.867 26.3667 237.3 28.7C236.733 31.0333 236.283 33.2 235.95 35.2C235.65 37.2 235.5 38.8167 235.5 40.05C235.5 40.6167 235.55 40.9667 235.65 41.1C234.917 41.0667 234.383 40.9333 234.05 40.7C233.717 40.5 233.45 40.2667 233.25 40C233.083 39.7667 232.917 39.5167 232.75 39.25C232.617 39.0167 232.4 38.8333 232.1 38.7C231.867 38.6 231.667 38.3667 231.5 38C231.333 37.6333 231.183 37.2333 231.05 36.8C230.95 36.3333 230.867 35.8667 230.8 35.4C230.733 34.9333 230.7 34.55 230.7 34.25ZM249.421 40.9C247.521 40.3333 246.238 39.7833 245.571 39.25C244.905 38.75 244.571 38.05 244.571 37.15C244.571 36.15 244.805 34.75 245.271 32.95C245.738 31.1167 246.338 29.0833 247.071 26.85C247.838 24.6167 248.705 22.2833 249.671 19.85C250.638 17.4167 251.621 15.0833 252.621 12.85C253.621 10.6167 254.588 8.58334 255.521 6.75C256.488 4.88334 257.338 3.43334 258.071 2.40001L257.721 0.300003C258.188 0.300003 258.838 0.41667 259.671 0.650005C260.505 0.883337 261.338 1.16667 262.171 1.50001C263.038 1.83334 263.788 2.18334 264.421 2.55C265.088 2.88334 265.455 3.16667 265.521 3.4C265.355 4.2 265.221 5.41667 265.121 7.05001C265.021 8.65 264.971 10.3667 264.971 12.2C264.971 15.8333 265.105 19.4 265.371 22.9C265.671 26.3667 266.338 29.9 267.371 33.5C267.905 30.8333 268.471 28.1833 269.071 25.55C269.705 22.8833 270.355 20.35 271.021 17.95C271.688 15.5167 272.355 13.2667 273.021 11.2C273.688 9.13334 274.321 7.33334 274.921 5.8C275.555 4.23334 276.138 3.01667 276.671 2.15C277.205 1.25 277.688 0.766672 278.121 0.700004C278.488 0.766672 278.888 0.916672 279.321 1.15C279.755 1.35 280.171 1.6 280.571 1.9C280.971 2.2 281.338 2.53334 281.671 2.90001C282.005 3.26667 282.271 3.63334 282.471 4C281.405 4.43334 280.338 5.45 279.271 7.05001C278.238 8.65 277.238 10.6 276.271 12.9C275.338 15.1667 274.455 17.6333 273.621 20.3C272.821 22.9667 272.105 25.6 271.471 28.2C270.871 30.7667 270.388 33.15 270.021 35.35C269.688 37.55 269.505 39.3167 269.471 40.65C269.471 40.7167 269.488 40.7667 269.521 40.8C269.421 40.8333 269.305 40.85 269.171 40.85C269.071 40.85 268.971 40.85 268.871 40.85C267.338 40.85 265.971 40.65 264.771 40.25C263.605 39.8833 262.838 39.35 262.471 38.65C261.771 35.85 261.188 33.15 260.721 30.55C260.255 27.95 259.855 25.35 259.521 22.75C259.221 20.15 258.971 17.5333 258.771 14.9C258.605 12.2333 258.471 9.45 258.371 6.55001C257.738 7.55001 257.071 8.86667 256.371 10.5C255.671 12.1 254.988 13.8667 254.321 15.8C253.655 17.7333 253.005 19.7667 252.371 21.9C251.771 24.0333 251.238 26.1167 250.771 28.15C250.305 30.1833 249.938 32.1167 249.671 33.95C249.405 35.75 249.271 37.3167 249.271 38.65C249.271 39.35 249.271 39.85 249.271 40.15C249.305 40.45 249.355 40.7 249.421 40.9Z" fill="white"/>
</svg>
